<svg width="128" height="128" viewBox="0 0 128 128" fill="none" xmlns="http://www.w3.org/2000/svg">
<g clip-path="url(#clip0)">
<path opacity="0.1" d="M0.0623122 66.6181C0.44365 71.4782 2.87659 75.8776 4.36127 80.506C6.46139 87.0793 6.65951 94.2391 4.92692 100.948C4.57354 102.328 4.13755 103.711 4.13755 105.123C4.13755 109.992 9.0352 113.224 13.4854 115.373C24.7969 120.812 36.5946 124.849 48.6728 127.414C52.6222 128.259 57.5554 128.623 60.0545 125.446C61.2544 123.92 61.5442 121.928 62.4251 120.216C64.6712 115.853 70.137 114.155 75.0423 113.185C80.9575 112.014 86.9279 111.236 92.9233 110.854C98.9586 110.47 105.811 110.135 109.811 105.647C112.354 102.794 113.094 98.8567 113.195 95.1382C113.527 82.9389 108.38 69.7377 114.986 59.1724C117.756 54.7413 122.279 51.505 125.028 47.061C129.008 40.6216 128.665 32.4432 125.97 25.5805C123.275 18.7179 118.502 12.8832 113.798 7.16506C112.234 5.27341 110.574 3.30691 108.235 2.43018C105.804 1.51747 103.047 1.9364 100.439 2.36828C88.5824 4.32903 76.2715 6.46397 66.3262 13.1985C61.3866 16.5427 57.2605 20.8802 52.8522 24.8694C43.3366 33.4898 32.307 41.4508 19.7381 44.854C9.52586 47.6181 -0.861798 55.0753 0.0623122 66.6181Z" fill="#2DBE60"/>
<path d="M56.4711 67.3249C56.5315 67.2896 56.5934 67.2579 56.6567 67.2299C56.6567 67.2299 51.4159 63.8857 49.9566 62.9571C49.4292 62.6005 48.9261 62.1996 48.4516 61.7579C50.2744 61.0093 52.8243 59.6719 54.1717 57.6637C54.1717 57.6637 53.7903 57.3038 53.3009 56.7812L53.8272 56.0844C53.8272 56.0844 56.5754 53.5766 54.6865 52.2767C53.1509 51.22 52.1823 54.0258 51.8735 55.1156L51.7654 54.9716C51.7654 54.9716 48.8088 60.0865 44.8212 57.5427C44.5729 57.1478 44.3664 56.7211 44.206 56.2716C43.9039 55.4153 43.4243 54.6539 42.8078 54.0517L42.4023 52.2767L41.679 51.6015C41.679 50.6312 41.707 49.4637 41.8061 48.4343C41.8121 48.3691 41.8184 48.3043 41.8252 48.24C43.2234 47.6109 44.2098 46.1194 44.2098 44.379C44.2101 43.7671 44.0866 43.1634 43.8488 42.614C44.4145 41.8812 44.8251 40.8865 44.703 40.0227C44.6077 39.3533 44.1031 38.9171 43.498 38.609C42.9158 38.275 42.204 38.0792 41.6714 37.9151C40.6913 37.6142 39.6211 37.4717 38.6677 37.8618C37.0915 38.5053 36.1178 39.2467 34.8925 40.4978C33.9239 41.4868 32.8587 43.2085 31.7146 43.9528C30.5706 44.6971 29.4508 45.6616 29.0071 47.0134C28.3817 48.9252 29.2385 50.9796 29.6249 52.9633C30.0567 55.1963 29.8875 57.5245 29.1393 59.6475C28.3894 61.7709 27.0483 63.8454 27.3776 66.0897C27.6318 67.7942 28.8228 69.1129 30.2884 69.8744C30.9389 70.2378 31.6332 70.4901 32.3489 70.623C33.5832 70.8519 34.9014 70.7785 36.0416 70.2502C35.5615 71.8046 34.866 73.2624 33.9811 74.569C33.1358 75.7869 33.2184 76.4491 33.9658 76.5125C33.9395 76.6267 33.915 76.7481 33.8921 76.8767C33.6493 78.2256 33.5718 80.4325 33.9811 84.0431C35.012 93.1457 32.7786 95.9314 32.7786 95.9314C32.7786 95.9314 33.0176 96.0264 33.4497 96.1675C33.4319 96.2222 33.4141 96.2783 33.3963 96.3359C32.9235 97.8561 32.4761 100.534 33.3811 104.11C34.3561 107.954 34.6421 109.724 34.7247 110.484V110.529C34.6268 110.572 34.2709 110.764 34.009 111.361C33.8302 111.78 33.7645 112.249 33.8201 112.71C33.8757 113.171 34.0502 113.603 34.3217 113.952V117.479H34.7514V114.507C35.1288 115.014 35.4518 115.57 35.7136 116.164C35.9578 116.718 36.3193 117.196 36.766 117.554C37.2126 117.912 37.7306 118.14 38.2737 118.217C39.3795 118.386 40.5998 118.448 41.1083 118.035C41.1083 118.035 41.4896 117.222 39.6656 116.236L39.6503 116.21C39.0503 115.219 38.1249 113.5 37.9851 112.151C37.9081 111.324 37.7503 110.508 37.5148 109.72C37.3322 109.127 37.2194 108.51 37.1792 107.884C37.0521 105.971 36.8309 101.778 37.1589 100.852C37.3801 100.229 37.511 98.6638 37.5847 97.2961C37.5847 97.2342 37.5911 97.1723 37.5949 97.1119C39.5027 97.3885 41.433 97.4044 43.3442 97.1594V98.0663C43.3442 98.0663 42.5713 100.853 44.117 104.847C44.117 104.847 46.2131 108.473 46.6873 110.615C46.7008 110.677 46.7131 110.737 46.7241 110.795C46.4432 110.833 45.2051 111.162 45.664 114.134L45.5776 118.035H46.0072L46.0936 114.599C46.0936 114.599 46.5233 113.762 47.9838 115.527C48.205 115.795 48.405 116.043 48.5838 116.272C49.1074 116.93 49.7526 117.45 50.4736 117.794C51.1946 118.139 51.9737 118.299 52.7556 118.264C53.6937 118.227 54.5899 118.12 54.9407 117.849C54.9407 117.849 55.8 117.107 53.6518 116.735L52.6628 116.403H52.626L52.4849 116.224C51.7349 115.262 50.6456 113.633 50.3672 111.977C50.2684 111.406 50.1124 110.85 49.9019 110.319L49.0986 108.272L47.2084 97.322C47.2084 97.322 47.3076 96.8412 47.4042 96.2524C47.4143 96.1876 47.4258 96.12 47.436 96.0537L47.7232 95.9285C47.7232 95.9285 49.4418 94.535 46.8639 86.083C46.8639 86.083 45.8623 81.3755 45.3551 77.6253L46.6059 77.3532C46.6059 77.3532 46.4127 74.0421 46.0275 71.7387C46.2818 70.659 46.4216 69.7233 46.2627 69.2655C46.1315 68.8489 46.0578 68.4119 46.0441 67.9698C45.994 66.9713 45.8994 65.9762 45.7606 64.9884L47.3788 66.2841L55.5394 70.7468C55.2267 70.0184 55.1771 69.421 55.2674 68.9387C55.8623 69.9018 57.441 72.0511 58.8036 70.2819C60.1943 68.4924 57.5376 67.5999 56.4711 67.3249Z" fill="url(#paint0_linear)"/>
<path d="M55.3093 67.355C55.3093 67.355 59.5154 68.1799 57.8973 70.3782C56.2791 72.5764 54.3381 68.6377 54.3381 68.6377L55.3093 67.355Z" fill="#F8BDC5"/>
<path d="M41.3154 53.156C41.3154 53.156 43.4179 54.2559 44.1462 56.5448C44.8746 58.8338 48.191 62.2241 49.565 63.1411C50.9391 64.0582 55.8736 67.3549 55.8736 67.3549C55.8736 67.3549 53.7712 68.2705 54.8224 70.8358L47.1385 66.4393L43.6619 63.5082L41.3154 53.156Z" fill="#575988"/>
<path opacity="0.1" d="M41.3154 53.156C41.3154 53.156 43.4179 54.2559 44.1462 56.5448C44.8746 58.8338 48.191 62.2241 49.565 63.1411C50.9391 64.0582 55.8736 67.3549 55.8736 67.3549C55.8736 67.3549 53.7712 68.2705 54.8224 70.8358L47.1385 66.4393L43.6619 63.5082L41.3154 53.156Z" fill="black"/>
<path d="M73.9466 0.355874C73.9466 0.355874 64.6826 -3.47637 54.8314 14.0624C54.8314 14.0624 50.69 23.8517 41.4362 23.8129L40.4447 21.2532L38.5775 22.0839L63.6187 86.8663L65.5076 86.1796L53.714 55.4958C57.6266 55.1561 66.3452 51.9659 74.2974 32.0806C74.2974 32.0806 81.4411 16.979 91.9025 18.7642L73.9466 0.355874Z" fill="url(#paint1_linear)"/>
<path d="M39.9134 24.0949L52.0514 55.1818C52.0514 55.1818 63.822 58.4353 74.2453 32.3726C74.2453 32.3726 81.2365 17.6008 91.4665 19.347L73.9072 1.33897C73.9072 1.33897 64.844 -2.40402 55.2089 14.7475C55.2076 14.7475 50.507 25.8685 39.9134 24.0949Z" fill="#5D76B7"/>
<path d="M55.3728 20.5057L55.9626 22.3686L54.8275 23.6455L56.1508 23.4613L56.6452 25.1658L57.0367 23.2309L58.2685 23.1186L57.1766 22.1152L57.4295 20.2898L56.4647 21.5106L55.3728 20.5057Z" fill="#FFD037"/>
<path d="M57.849 14.926L58.374 16.6837L57.3812 18.0816L58.5621 17.7749L59.1951 19.3715L59.3527 17.3891L60.6442 17.1516L59.5243 16.3253L59.7633 14.5876L58.9689 15.7523L57.849 14.926Z" fill="#FFD037"/>
<path d="M61.5899 11.5299L62.1581 13.0213L61.1832 14.5603L62.3475 14.114L62.9157 15.6054L63.2932 13.7598L64.6317 13.4863L63.386 12.6787L63.8106 10.7971L62.7708 12.231L61.5899 11.5299Z" fill="#FFD037"/>
<path d="M65.7706 11.4305L66.3401 12.9219L65.158 14.2363L66.5104 13.8735L67.0329 15.4009L67.4574 13.5194L68.8277 13.2991L67.7104 12.7017L68.1019 10.7668L66.9528 12.133L65.7706 11.4305Z" fill="#FFD037"/>
<path d="M69.2472 14.2088L69.8154 15.7003L68.6345 17.0146L69.987 16.6518L70.5094 18.1793L70.9327 16.2977L72.303 16.0774L71.1857 15.48L71.5785 13.5452L70.4281 14.9114L69.2472 14.2088Z" fill="#FFD037"/>
<path d="M71.1069 18.4859L71.6751 19.9774L70.4942 21.2917L71.8454 20.9289L72.3691 22.4564L72.7924 20.5748L74.1627 20.3545L73.0454 19.7571L73.4381 17.8223L72.2878 19.1885L71.1069 18.4859Z" fill="#FFD037"/>
<path d="M70.2107 25.3097L70.8438 26.9062L69.7188 28.8727L71.0815 28.1918L71.6649 29.594L71.9471 27.5915L73.3886 26.9264L72.1149 26.2973L72.3818 24.384L71.5136 25.7617L70.2107 25.3097Z" fill="#FFD037"/>
<path d="M68.1693 31.713L68.6638 33.4175L67.6774 35.2746L68.9943 34.6311L69.5485 36.2118L69.8129 34.0668L71.0509 33.4075L69.9336 32.81L70.2298 30.7183L69.3006 32.2212L68.1693 31.713Z" fill="#FFD037"/>
<path d="M64.2644 35.6244L64.7754 37.47L63.5831 39.1025L64.7639 38.7959L65.2877 40.3247L65.6792 38.3899L66.9033 37.8184L65.9397 37.0237L66.2041 34.8801L65.3067 36.4349L64.2644 35.6244Z" fill="#FFD037"/>
<path d="M60.2324 36.3041L60.6976 38.1856L59.4506 39.3949L60.7141 39.3344L61.0802 40.8302L61.5683 39.0523L62.9526 38.7428L61.9395 37.7552L62.1785 36.0176L61.2747 37.1146L60.2324 36.3041Z" fill="#FFD037"/>
<path d="M56.5741 32.892L57.0546 34.6858L55.5267 35.8821L57.1359 35.9397L57.4448 37.7896L58.0537 35.7626L59.5663 35.6618L58.4287 34.6944L58.9091 32.4573L57.5567 33.8278L56.5741 32.892Z" fill="#FFD037"/>
<path d="M55.139 26.7336L55.6194 28.5273L54.0916 29.7237L55.7008 29.7798L56.0097 31.6311L56.6186 29.6027L58.1312 29.5034L56.9923 28.536L57.474 26.2988L56.1215 27.6679L55.139 26.7336Z" fill="#FFD037"/>
<path d="M68.6625 25.5833L65.866 22.0606C65.8233 22.0067 65.7716 21.9628 65.7139 21.9316C65.6562 21.9003 65.5936 21.8822 65.5298 21.8783C65.4659 21.8745 65.402 21.8849 65.3417 21.909C65.2814 21.9331 65.2259 21.9704 65.1783 22.0188L64.9533 22.252L63.7839 20.7764C63.6751 20.6393 63.5436 20.5277 63.3968 20.4481C63.25 20.3685 63.0907 20.3225 62.9282 20.3126C62.7657 20.3027 62.603 20.3291 62.4495 20.3905C62.296 20.4518 62.1546 20.5467 62.0335 20.6699L60.5082 22.2204C60.3871 22.3435 60.2885 22.4925 60.2183 22.6588C60.148 22.8251 60.1073 23.0054 60.0986 23.1895C60.0899 23.3736 60.1132 23.5578 60.1674 23.7316C60.2215 23.9055 60.3053 24.0656 60.4141 24.2027L61.5836 25.6783L61.356 25.9101C61.3084 25.9585 61.2697 26.017 61.2421 26.0823C61.2145 26.1477 61.1985 26.2185 61.1951 26.2909C61.1917 26.3632 61.2009 26.4356 61.2222 26.5039C61.2435 26.5722 61.2764 26.6351 61.3192 26.6889L64.1156 30.2116C64.1584 30.2655 64.21 30.3094 64.2677 30.3406C64.3254 30.3719 64.388 30.39 64.4518 30.3939C64.5157 30.3978 64.5796 30.3873 64.6399 30.3632C64.7002 30.3391 64.7558 30.3018 64.8033 30.2534L68.6269 26.3665C68.6749 26.3179 68.714 26.259 68.7419 26.1933C68.7697 26.1275 68.7857 26.0561 68.789 25.9833C68.7923 25.9105 68.7829 25.8376 68.7611 25.7689C68.7394 25.7003 68.7059 25.6372 68.6625 25.5833ZM60.9582 24.1235C60.8494 23.9864 60.7655 23.8263 60.7114 23.6525C60.6573 23.4786 60.6339 23.2944 60.6426 23.1103C60.6514 22.9262 60.692 22.7459 60.7623 22.5796C60.8326 22.4133 60.9311 22.2644 61.0522 22.1412L61.9102 21.2688C62.0313 21.1456 62.1727 21.0506 62.3262 20.9893C62.4797 20.928 62.6423 20.9016 62.8049 20.9114C62.9674 20.9213 63.1267 20.9674 63.2735 21.047C63.4203 21.1266 63.5518 21.2382 63.6606 21.3753L64.6203 22.586L61.9179 25.3328L60.9582 24.1235ZM65.2902 26.1188L65.7427 26.6947C65.7666 26.7248 65.7851 26.76 65.7971 26.7983C65.809 26.8365 65.8142 26.877 65.8123 26.9176C65.8104 26.9581 65.8015 26.9977 65.786 27.0343C65.7706 27.071 65.749 27.1038 65.7223 27.1309C65.6957 27.158 65.6646 27.1789 65.6309 27.1925C65.5971 27.206 65.5613 27.2118 65.5256 27.2097C65.4898 27.2076 65.4547 27.1975 65.4224 27.18C65.3901 27.1625 65.3611 27.138 65.3372 27.1078L64.8593 26.5047C64.7125 26.5448 64.558 26.5268 64.4215 26.4537C64.285 26.3806 64.1747 26.2567 64.109 26.1027C64.0433 25.9488 64.0261 25.7739 64.0603 25.6074C64.0945 25.4408 64.1781 25.2925 64.297 25.1872C64.416 25.0819 64.5632 25.0259 64.7142 25.0285C64.8652 25.0311 65.0108 25.0922 65.1269 25.2015C65.243 25.3109 65.3225 25.462 65.3522 25.6297C65.3819 25.7974 65.36 25.9715 65.2902 26.1232V26.1188Z" fill="url(#paint2_linear)"/>
<path d="M62.1327 20.8773L60.6849 22.35C60.5698 22.467 60.4763 22.6085 60.4095 22.7665C60.3428 22.9245 60.3042 23.0958 60.2959 23.2706C60.2877 23.4455 60.3099 23.6205 60.3614 23.7856C60.4129 23.9507 60.4925 24.1028 60.5959 24.233L61.8225 25.7806L62.1391 25.4581L61.112 24.1625C61.0086 24.0322 60.9289 23.8802 60.8775 23.7151C60.826 23.5499 60.8038 23.3749 60.812 23.2001C60.8203 23.0252 60.8589 22.8539 60.9256 22.6959C60.9924 22.538 61.0859 22.3965 61.201 22.2795L62.0158 21.4517C62.1308 21.3346 62.265 21.2444 62.4108 21.1861C62.5566 21.1278 62.7111 21.1026 62.8655 21.112C63.0199 21.1213 63.1712 21.165 63.3106 21.2406C63.4501 21.3162 63.5751 21.4222 63.6784 21.5525L64.7055 22.8481L65.022 22.5256L63.7953 20.978C63.692 20.8478 63.5671 20.7418 63.4276 20.6662C63.2881 20.5906 63.1369 20.5469 62.9825 20.5375C62.8281 20.5282 62.6735 20.5534 62.5277 20.6117C62.3819 20.67 62.2477 20.7602 62.1327 20.8773Z" fill="#F0F5FA"/>
<path d="M65.1212 22.1614L61.4895 25.8511C61.3982 25.9439 61.3431 26.074 61.3364 26.2128C61.3298 26.3515 61.372 26.4876 61.4539 26.5911L64.1068 29.9367C64.1887 30.0402 64.3036 30.1026 64.4261 30.1101C64.5486 30.1177 64.6688 30.0698 64.7602 29.9771L68.393 26.283C68.4844 26.1902 68.5395 26.0602 68.5461 25.9214C68.5528 25.7826 68.5105 25.6465 68.4286 25.5431L65.7796 22.2017C65.739 22.1496 65.6896 22.1072 65.6344 22.077C65.5791 22.0467 65.5191 22.0292 65.4578 22.0254C65.3966 22.0217 65.3352 22.0318 65.2774 22.0551C65.2196 22.0785 65.1665 22.1146 65.1212 22.1614ZM65.2241 26.0556L65.6538 26.5983C65.6765 26.6266 65.694 26.6598 65.7054 26.6958C65.7168 26.7319 65.7218 26.7701 65.7202 26.8083C65.7185 26.8466 65.7102 26.884 65.6958 26.9187C65.6813 26.9533 65.661 26.9843 65.636 27.01C65.6109 27.0357 65.5817 27.0556 65.5498 27.0685C65.518 27.0814 65.4843 27.0871 65.4505 27.0852C65.4167 27.0833 65.3836 27.074 65.3531 27.0576C65.3225 27.0412 65.2951 27.0182 65.2724 26.9899L64.8186 26.414C64.6791 26.452 64.5323 26.4348 64.4027 26.3652C64.273 26.2955 64.1684 26.1777 64.1061 26.0314C64.0438 25.885 64.0276 25.7188 64.0603 25.5606C64.093 25.4024 64.1725 25.2616 64.2857 25.1617C64.3988 25.0618 64.5388 25.0088 64.6823 25.0115C64.8257 25.0142 64.964 25.0725 65.0742 25.1767C65.1843 25.2808 65.2596 25.4246 65.2876 25.5839C65.3156 25.7433 65.2945 25.9087 65.2279 26.0527L65.2241 26.0556Z" fill="#F0F5FA"/>
<path d="M39.3045 22.5946L63.7114 85.7287L65.5584 85.0564L41.1349 21.7812L39.3045 22.5946Z" fill="#F0F5FA"/>
<path d="M51.2646 55.8123C51.2646 55.8123 52.2357 51.3236 54.0153 52.6062C55.7949 53.8889 53.2069 56.3622 53.2069 56.3622L52.4785 57.3699L51.2646 55.8123Z" fill="#F8BDC5"/>
<path d="M41.5264 51.7051L42.448 52.6063L42.837 54.3943L42.2052 53.9797V52.6063L41.5251 52.5141L41.5264 51.7051Z" fill="#DEDFF7"/>
<path opacity="0.1" d="M41.5264 51.7051L42.448 52.6063L42.837 54.3943L42.2052 53.9797V52.6063L41.5251 52.5141L41.5264 51.7051Z" fill="black"/>
<path d="M44.2683 69.8284L44.806 77.7074L46.414 77.3403C46.414 77.3403 46.0568 70.9283 45.3424 69.8284C44.628 68.7286 44.2683 69.8284 44.2683 69.8284Z" fill="#575988"/>
<path opacity="0.1" d="M44.2683 69.8284L44.806 77.7074L46.414 77.3403C46.414 77.3403 46.0568 70.9283 45.3424 69.8284C44.628 68.7286 44.2683 69.8284 44.2683 69.8284Z" fill="black"/>
<path d="M40.3443 116.457L37.7563 116.915L36.3009 115.632L35.2497 111.876V110.5C35.2518 110.335 35.242 110.171 35.2204 110.008C35.1429 109.263 34.8734 107.513 33.9493 103.721C33.0964 100.198 33.5184 97.558 33.9633 96.0593C34.0995 95.5683 34.2845 95.0964 34.515 94.6528H37.9928C37.9928 94.6528 37.9737 95.7455 37.9089 97.008C37.839 98.357 37.7169 99.9017 37.5072 100.516C37.197 101.429 37.4093 105.565 37.5263 107.452C37.5643 108.068 37.6706 108.675 37.8428 109.261C38.0652 110.04 38.2139 110.844 38.2864 111.659C38.4135 112.991 39.2893 114.682 39.8537 115.662C40.141 116.149 40.3443 116.457 40.3443 116.457Z" fill="#F8BDC5"/>
<path d="M52.6399 116.546L51.5074 116.913L49.3236 115.906L46.5729 112.609V110.778C46.5607 110.565 46.5313 110.354 46.4851 110.147C46.039 108.034 44.07 104.458 44.07 104.458C42.6146 100.519 43.3416 97.771 43.3416 97.771V94.9292C43.3416 94.9292 47.1436 93.4637 47.305 94.0136C47.3953 94.3217 47.2821 95.2387 47.1665 95.9815C47.0749 96.5574 46.9822 97.0353 46.9822 97.0353L48.7617 107.845L49.5181 109.861C49.7164 110.386 49.8631 110.935 49.9553 111.496C50.2184 113.124 51.2442 114.735 51.9497 115.684C52.3438 116.224 52.6399 116.546 52.6399 116.546Z" fill="#F8BDC5"/>
<path opacity="0.1" d="M40.3443 116.457L37.7563 116.915L36.3009 115.632L35.2496 111.876V110.5C35.2517 110.335 35.2419 110.171 35.2204 110.008C35.2555 109.984 35.2925 109.965 35.331 109.95C35.331 109.95 35.6551 111.325 35.4924 111.966C35.3653 112.477 36.4674 114.386 36.9212 115.133C37.1454 115.517 37.4717 115.81 37.8529 115.971C38.7363 116.325 39.5842 115.847 39.8613 115.663C40.1409 116.149 40.3443 116.457 40.3443 116.457Z" fill="black"/>
<path d="M39.8753 115.683C39.8753 115.683 38.8508 116.492 37.7716 116.058C37.391 115.9 37.0648 115.608 36.8398 115.226C36.386 114.473 35.2814 112.564 35.4111 112.059C35.5725 111.419 35.2496 110.044 35.2496 110.044C35.2496 110.044 34.8391 110.188 34.5505 110.876C34.3814 111.29 34.3193 111.751 34.3715 112.204C34.4237 112.657 34.588 113.084 34.8454 113.435V116.914H35.2496V113.985C35.6066 114.488 35.9108 115.037 36.156 115.619C36.3768 116.159 36.7136 116.627 37.1356 116.98C37.5575 117.334 38.0511 117.562 38.5711 117.643C39.6122 117.81 40.7613 117.872 41.2405 117.465C41.2341 117.465 41.59 116.663 39.8753 115.683Z" fill="#575988"/>
<path opacity="0.1" d="M52.6399 116.546L51.5073 116.913L49.3235 115.906L46.5728 112.609V110.778C46.5606 110.565 46.5313 110.354 46.4851 110.147C46.5141 110.141 46.5434 110.138 46.5728 110.137C46.5728 110.614 47.2897 111.748 47.7931 112.484C48.0554 112.87 48.3002 113.271 48.5265 113.686C49.5739 115.598 51.3878 115.701 51.9459 115.69C52.3437 116.224 52.6399 116.546 52.6399 116.546Z" fill="black"/>
<path d="M46.5728 110.319C46.5728 110.319 45.036 110.319 45.5216 113.617L45.4415 117.465H45.8457L45.9271 114.076C45.9271 114.076 46.3313 113.251 47.7067 114.992C47.9151 115.256 48.1037 115.5 48.2723 115.726C48.7531 116.369 49.3566 116.88 50.0372 117.221C50.7178 117.561 51.4578 117.722 52.2014 117.691C53.0835 117.654 53.9288 117.547 54.2593 117.282C54.2593 117.282 55.0678 116.549 53.0454 116.182L52.1149 115.861C52.1149 115.861 49.7773 116.149 48.5278 113.867C48.3014 113.451 48.0562 113.048 47.7931 112.66C47.291 111.93 46.5728 110.795 46.5728 110.319Z" fill="#575988"/>
<path opacity="0.1" d="M34.5213 94.6543H37.9991C37.9991 94.6543 37.98 95.747 37.9152 97.0095C36.5809 96.816 35.263 96.4987 33.9747 96.0608C34.1092 95.57 34.2926 95.0982 34.5213 94.6543Z" fill="black"/>
<path opacity="0.1" d="M47.1614 95.9815C45.9302 96.5165 44.6456 96.8782 43.3365 97.0584V94.9292C43.3365 94.9292 47.1385 93.4637 47.2999 94.0136C47.3914 94.3217 47.2783 95.2401 47.1614 95.9815Z" fill="black"/>
<path d="M47.4627 95.662C40.8299 98.7773 33.3887 95.662 33.3887 95.662C33.3887 95.662 35.4912 92.9137 34.5213 83.9363C34.14 80.3762 34.2086 78.1995 34.4374 76.8679C34.7844 74.8423 35.4912 74.7761 35.4912 74.7761L45.0361 73.4934C44.9509 73.8605 44.9458 74.4795 44.9929 75.2497C45.2204 78.8977 46.6529 85.9518 46.6529 85.9518C49.0808 94.2886 47.4627 95.662 47.4627 95.662Z" fill="#575988"/>
<path d="M42.3667 46.5599C42.1201 46.9788 41.9713 47.834 41.8824 48.8186C41.6828 51.0616 41.7997 53.9796 41.7997 53.9796C41.7997 53.9796 36.8652 57.0028 37.9978 53.0641C38.653 50.6307 38.4507 48.0046 37.4334 45.7364C37.4334 45.7364 43.1764 45.1865 42.3667 46.5599Z" fill="#F8BDC5"/>
<path opacity="0.1" d="M42.3667 46.5598C42.1201 46.9787 41.9713 47.8338 41.8824 48.8185C41.2746 49.0991 40.6111 49.1884 39.9622 49.0768C39.3133 48.9653 38.703 48.6572 38.1961 48.1851C38.0433 47.3332 37.7866 46.5095 37.4334 45.7378C37.4334 45.7378 43.1764 45.1864 42.3667 46.5598Z" fill="black"/>
<path d="M40.5057 48.9424C42.5163 48.9424 44.1463 47.0964 44.1463 44.8193C44.1463 42.5422 42.5163 40.6963 40.5057 40.6963C38.4951 40.6963 36.8652 42.5422 36.8652 44.8193C36.8652 47.0964 38.4951 48.9424 40.5057 48.9424Z" fill="#F8BDC5"/>
<path opacity="0.1" d="M44.9928 75.2497C44.5492 76.6289 44.1463 77.7071 44.1463 77.7071C44.1463 77.7071 40.3443 74.0419 37.4334 75.7838C36.0593 76.6044 35.0107 76.9571 34.4387 76.8679C34.7857 74.8423 35.4924 74.7761 35.4924 74.7761L45.0373 73.4934C44.9509 73.8605 44.9458 74.4781 44.9928 75.2497Z" fill="black"/>
<path d="M44.1463 77.3403C44.1463 77.3403 40.3443 73.6765 37.4335 75.4169C34.5226 77.1574 33.0659 76.7918 34.5213 74.5921C35.9768 72.3923 37.919 67.7208 36.4623 64.2398C35.0056 60.7588 34.44 55.2624 35.5725 53.7969C36.7051 52.3314 37.7563 50.6816 37.7563 50.3159C37.7563 50.3159 41.8811 53.7048 42.6908 55.0796C42.9235 55.474 43.3035 56.4818 43.7255 57.7184C43.9531 58.3864 44.1946 59.1206 44.4323 59.8605C44.8039 61.0213 45.1055 62.2093 45.3348 63.4164C45.6254 64.9573 45.8086 66.5217 45.8827 68.0951C45.8957 68.5294 45.965 68.9592 46.0886 69.3706C46.5729 70.8361 44.1463 77.3403 44.1463 77.3403Z" fill="#575988"/>
<path d="M42.448 52.6983L42.3527 54.6101L37.6825 50.5792C37.6825 50.5792 37.5936 49.7702 38.8075 50.5936C40.0214 51.4171 42.448 52.6983 42.448 52.6983Z" fill="#DEDFF7"/>
<path opacity="0.1" d="M45.3335 63.4162C41.0612 63.5054 36.2195 58.1026 36.2195 58.1026C34.5213 52.9732 40.2642 54.0717 40.2642 54.0717C40.2642 54.0717 40.7371 55.4508 43.7255 57.7182C43.953 58.3862 44.1945 59.1204 44.4322 59.8603C44.8035 61.0211 45.1046 62.2091 45.3335 63.4162Z" fill="black"/>
<path d="M36.2195 57.462C36.2195 57.462 41.7197 63.599 46.1686 62.6834C46.1686 62.6834 51.426 61.2179 53.5297 57.9198C53.5297 57.9198 52.1543 56.5449 51.2646 55.2637C51.2646 55.2637 48.4338 60.393 44.6318 57.7369C40.8299 55.0809 40.2642 53.4311 40.2642 53.4311C40.2642 53.4311 34.5213 52.3312 36.2195 57.462Z" fill="#575988"/>
<path opacity="0.1" d="M41.918 38.5383C40.9951 38.2418 39.9871 38.1064 39.0897 38.485C37.605 39.1199 36.6885 39.8512 35.5305 41.085C34.6179 42.0596 33.6137 43.7583 32.5396 44.4897C31.4655 45.221 30.4155 46.174 29.9973 47.5128C29.4088 49.3987 30.2147 51.4243 30.5795 53.3807C30.9859 55.5824 30.8271 57.8699 30.1219 59.9727C29.4151 62.0658 28.1529 64.113 28.4694 66.3271C28.8012 68.6953 30.8998 70.3019 32.9857 70.7064C34.4069 70.9828 35.9449 70.8129 37.1525 69.9232C37.493 69.69 37.7803 69.3695 37.9914 68.9875C38.5063 67.9798 38.1681 66.7115 37.8503 65.603C37.1995 63.3327 36.686 61.0149 36.1712 58.7C35.8712 57.3482 35.5738 55.8986 35.9983 54.59C36.4127 53.313 37.4461 52.419 38.5266 51.823C38.9499 51.5898 39.4011 51.3796 39.7189 50.9881C39.8937 50.7646 40.0288 50.505 40.1168 50.2236C40.6608 48.581 40.0507 46.4619 41.1006 45.1706C41.6345 44.5141 42.4569 44.2867 43.1154 43.7958C43.9467 43.1753 44.7678 41.7098 44.6115 40.5207C44.4411 39.2682 42.8726 38.8449 41.918 38.5383Z" fill="black"/>
<path d="M41.7552 38.4463C40.8324 38.1497 39.8244 38.0144 38.927 38.393C37.4423 39.0279 36.5258 39.7592 35.3678 40.9929C34.4552 41.9676 33.451 43.6663 32.3769 44.3976C31.3028 45.1289 30.2528 46.082 29.8346 47.4208C29.2461 49.3067 30.052 51.3322 30.4168 53.2886C30.8232 55.4904 30.6644 57.7779 29.9592 59.8806C29.2524 61.9738 27.9902 64.0209 28.3067 66.2351C28.6385 68.6032 30.7371 70.2098 32.823 70.6143C34.2441 70.8907 35.7822 70.7209 36.9898 69.8312C37.3302 69.5979 37.6176 69.2774 37.8287 68.8954C38.3435 67.8877 38.0054 66.6194 37.6876 65.5109C37.0368 63.2407 36.5233 60.9229 36.0085 58.608C35.7085 57.2562 35.411 55.8065 35.8356 54.4979C36.25 53.221 37.2834 52.327 38.3639 51.731C38.7872 51.4978 39.2384 51.2876 39.5562 50.896C39.731 50.6725 39.866 50.413 39.954 50.1316C40.4981 48.489 39.888 46.3699 40.9379 45.0786C41.4718 44.4221 42.2942 44.1946 42.9526 43.7037C43.784 43.0833 44.6051 41.6177 44.4488 40.4286C44.2797 39.1776 42.7111 38.7529 41.7552 38.4463Z" fill="#EB6475"/>
<path d="M14.323 98.0259C14.323 98.0259 12.6375 91.5477 14.6395 86.7768C15.4902 84.7825 15.7466 82.5295 15.3704 80.3561C15.1849 79.3261 14.9164 78.3175 14.5683 77.343" stroke="#535461" stroke-width="0.353532" stroke-miterlimit="10"/>
<path d="M15.8116 74.3285C15.8116 75.1232 14.5405 77.4251 14.5405 77.4251C14.5405 77.4251 13.2693 75.1217 13.2693 74.3285C13.2693 73.9467 13.4033 73.5805 13.6417 73.3106C13.88 73.0406 14.2034 72.8889 14.5405 72.8889C14.8776 72.8889 15.2009 73.0406 15.4393 73.3106C15.6777 73.5805 15.8116 73.9467 15.8116 74.3285Z" fill="#00B27F"/>
<path d="M17.9102 78.7267C17.5288 79.3932 15.3577 80.5449 15.3577 80.5449C15.3577 80.5449 15.3971 77.8298 15.7785 77.1632C15.9686 76.8618 16.254 76.6549 16.5754 76.5857C16.8967 76.5164 17.2293 76.5902 17.5038 76.7916C17.7784 76.9929 17.9738 77.3064 18.0495 77.6669C18.1252 78.0273 18.0753 78.4069 17.9102 78.7267Z" fill="#00B27F"/>
<path d="M17.8187 86.2441C17.192 86.6011 14.8048 86.3549 14.8048 86.3549C14.8048 86.3549 16.0492 84.0343 16.6746 83.6773C16.9733 83.5244 17.3125 83.5082 17.6214 83.6318C17.9304 83.7554 18.1853 84.0094 18.3329 84.3408C18.4805 84.6721 18.5094 85.0552 18.4136 85.4101C18.3178 85.765 18.1046 86.0643 17.8187 86.2455V86.2441Z" fill="#00B27F"/>
<path d="M16.6187 91.9147C16.0543 92.3869 13.6646 92.5999 13.6646 92.5999C13.6646 92.5999 14.5442 90.0749 15.1086 89.6027C15.3802 89.3975 15.711 89.3185 16.0326 89.382C16.3542 89.4456 16.6419 89.6468 16.836 89.9441C17.0301 90.2413 17.1159 90.6117 17.0754 90.9786C17.035 91.3455 16.8714 91.6806 16.6187 91.9147Z" fill="#00B27F"/>
<path d="M12.6935 80.7002C13.2019 81.253 15.5395 81.8274 15.5395 81.8274C15.5395 81.8274 14.9663 79.1915 14.4629 78.6387C14.3458 78.4949 14.204 78.3798 14.0462 78.3001C13.8884 78.2205 13.718 78.1782 13.5453 78.1757C13.3726 78.1731 13.2012 78.2105 13.0417 78.2855C12.8822 78.3604 12.7378 78.4714 12.6174 78.6117C12.497 78.752 12.4031 78.9185 12.3415 79.1013C12.2798 79.284 12.2517 79.479 12.2588 79.6745C12.266 79.8699 12.3082 80.0617 12.3829 80.238C12.4576 80.4144 12.5633 80.5716 12.6935 80.7002Z" fill="#00B27F"/>
<path d="M11.3639 87.3497C11.9906 87.7067 14.3777 87.4606 14.3777 87.4606C14.3777 87.4606 13.1333 85.1399 12.5079 84.7829C12.3582 84.688 12.1932 84.6285 12.0226 84.6078C11.8521 84.5871 11.6796 84.6057 11.5156 84.6625C11.3516 84.7193 11.1994 84.8131 11.0682 84.9383C10.9371 85.0634 10.8296 85.2174 10.7524 85.3908C10.6751 85.5642 10.6297 85.7536 10.6187 85.9474C10.6078 86.1413 10.6316 86.3356 10.6887 86.5188C10.7459 86.7019 10.8351 86.8701 10.9512 87.0131C11.0672 87.1562 11.2076 87.2712 11.3639 87.3511V87.3497Z" fill="#00B27F"/>
<path d="M10.8542 94.0153C11.4186 94.4874 13.8083 94.7005 13.8083 94.7005C13.8083 94.7005 12.9287 92.1754 12.3643 91.7032C12.0927 91.4981 11.7619 91.4191 11.4403 91.4826C11.1187 91.5462 10.831 91.7474 10.6369 92.0447C10.4428 92.3419 10.357 92.7123 10.3975 93.0792C10.4379 93.446 10.6015 93.7812 10.8542 94.0153Z" fill="#00B27F"/>
<path d="M61.1603 116.509C61.3933 116.294 61.563 116.004 61.6471 115.677C61.7107 115.346 61.5861 114.95 61.3065 114.829C60.9938 114.694 60.6595 114.939 60.4065 115.188C60.1536 115.437 59.8625 115.719 59.5307 115.666C59.7012 115.491 59.8288 115.268 59.901 115.021C59.9731 114.773 59.9875 114.509 59.9425 114.253C59.9282 114.147 59.8887 114.048 59.8281 113.965C59.654 113.755 59.34 113.846 59.1316 114.011C58.4706 114.538 58.2863 115.555 58.2825 116.47C58.2164 116.141 58.2723 115.797 58.2697 115.463C58.2672 115.129 58.1859 114.743 57.9342 114.567C57.7781 114.472 57.6028 114.425 57.4257 114.43C57.1283 114.417 56.7978 114.452 56.5944 114.698C56.3402 115.003 56.4075 115.517 56.6274 115.85C56.8474 116.182 57.1804 116.397 57.488 116.63C57.7345 116.796 57.9448 117.023 58.1032 117.294C58.1219 117.331 58.1372 117.371 58.149 117.412H60.0112C60.4284 117.171 60.815 116.867 61.1603 116.509Z" fill="#00B27F"/>
<path d="M86.1659 61.6787C86.1659 61.6787 80.8475 67.702 83.8499 76.6391C86.8523 85.5762 78.7031 100.439 78.7031 100.439C78.7031 100.439 78.7908 100.424 78.9574 100.393C89.8801 98.2088 95.3066 84.0618 89.2331 73.5512C86.9705 69.6426 85.1172 65.0589 86.1659 61.6787Z" fill="#4BAD31"/>
<path opacity="0.1" d="M86.1659 61.7781C86.1659 61.7781 80.8475 67.8014 83.8499 76.7385C86.8523 85.6756 78.7031 100.538 78.7031 100.538C78.7031 100.538 78.7908 100.524 78.9574 100.492C89.8751 98.3082 95.3015 84.1554 89.2281 73.6462C86.9705 69.7434 85.1172 65.1525 86.1659 61.7781Z" fill="black"/>
<path d="M86.1659 61.6787C86.1659 61.6787 83.1635 69.061 86.1659 75.0844C89.1683 81.1077 86.6744 98.0101 78.7031 100.439" stroke="#535461" stroke-width="0.176766" stroke-miterlimit="10"/>
<path d="M95.6371 86.0381C95.6371 86.0381 89.5687 84.944 89.0157 91.1026C88.4628 97.2613 77.3468 98.1193 77.3468 98.1193L77.5553 98.2762C86.7328 105.1 95.5074 102.622 94.1842 93.5615C93.6935 90.1914 93.7329 86.8083 95.6371 86.0381Z" fill="#6CC24A"/>
<path d="M95.6371 86.0383C95.6371 86.0383 90.9263 87.2087 91.3152 92.0602C91.7042 96.9117 84.3189 102.726 77.3468 98.1195" stroke="#535461" stroke-width="0.176766" stroke-miterlimit="10"/>
<path d="M90.2984 98.3411C90.2984 98.3411 85.5189 97.2557 84.244 95.8161C82.9691 94.3764 77.2337 91.8471 76.5969 93.6566C75.9601 95.4662 67.9939 101.589 73.4064 102.671C78.8188 103.754 86.152 104.111 87.7447 103.391C89.3374 102.671 90.2984 98.3411 90.2984 98.3411Z" fill="#A8A8A8"/>
<path opacity="0.2" d="M73.4063 102.006C78.8239 103.089 86.1519 103.446 87.7446 102.726C88.9586 102.176 89.8013 99.5361 90.1344 98.3066L90.2933 98.3441C90.2933 98.3441 89.3374 102.674 87.7446 103.396C86.1519 104.117 78.8226 103.757 73.4063 102.676C71.8428 102.363 71.3954 101.629 71.5645 100.701C71.7017 101.302 72.2471 101.769 73.4063 102.006Z" fill="black"/>
<path d="M10.5313 97.6588C10.5313 97.6588 13.3799 97.5595 14.2379 96.867C15.0959 96.1746 18.6195 95.3482 18.8318 96.4582C19.0441 97.5681 23.1117 101.981 19.8919 102.006C16.6721 102.032 12.4202 101.439 11.5635 100.855C10.7067 100.27 10.5313 97.6588 10.5313 97.6588Z" fill="#A8A8A8"/>
<path opacity="0.2" d="M19.9528 101.624C16.7369 101.652 12.4811 101.056 11.6244 100.472C10.9723 100.021 10.7117 98.4076 10.6253 97.6619H10.53C10.53 97.6619 10.7105 100.263 11.5672 100.855C12.4239 101.447 16.6797 102.043 19.8956 102.007C20.8236 101.998 21.1439 101.624 21.1274 101.071C20.9977 101.408 20.6443 101.616 19.9528 101.624Z" fill="black"/>
</g>
<defs>
<linearGradient id="paint0_linear" x1="43.2628" y1="118.346" x2="43.2628" y2="37.6286" gradientUnits="userSpaceOnUse">
<stop stop-color="#808080" stop-opacity="0.25"/>
<stop offset="0.54" stop-color="#808080" stop-opacity="0.12"/>
<stop offset="1" stop-color="#808080" stop-opacity="0.1"/>
</linearGradient>
<linearGradient id="paint1_linear" x1="51621" y1="7080.7" x2="26665.5" y2="-24777.3" gradientUnits="userSpaceOnUse">
<stop stop-color="#808080" stop-opacity="0.25"/>
<stop offset="0.54" stop-color="#808080" stop-opacity="0.12"/>
<stop offset="1" stop-color="#808080" stop-opacity="0.1"/>
</linearGradient>
<linearGradient id="paint2_linear" x1="6069.42" y1="-3116.77" x2="5669.2" y2="-3627.7" gradientUnits="userSpaceOnUse">
<stop stop-color="#808080" stop-opacity="0.25"/>
<stop offset="0.54" stop-color="#808080" stop-opacity="0.12"/>
<stop offset="1" stop-color="#808080" stop-opacity="0.1"/>
</linearGradient>
<clipPath id="clip0">
<rect width="128" height="128" fill="white"/>
</clipPath>
</defs>
</svg>
