<svg width="187" height="205" viewBox="0 0 187 205" fill="none" xmlns="http://www.w3.org/2000/svg">
<g id="gdpr-compilance" filter="url(#filter0_d)">
<rect id="Rectangle " x="21.5769" y="4" width="143.846" height="188.235" rx="14.3846" fill="white"/>
<path id="Rectangle _2" d="M21.5769 18.3846C21.5769 10.4402 28.0171 4 35.9615 4H151.038C158.983 4 165.423 10.4402 165.423 18.3846V121.647H21.5769V18.3846Z" fill="#2050E0"/>
<g id="Lock">
<path id="Shape" fill-rule="evenodd" clip-rule="evenodd" d="M101.867 60.2106H103.188C104.646 60.2106 105.83 61.4117 105.83 62.8921V73.6178C105.83 75.0982 104.646 76.2992 103.188 76.2992H83.8125C82.3538 76.2992 81.1704 75.0982 81.1704 73.6178V62.8921C81.1704 61.4117 82.3538 60.2106 83.8125 60.2106H85.1335V56.1885C85.1335 51.5071 88.8874 47.6973 93.5 47.6973C98.1127 47.6973 101.867 51.5071 101.867 56.1885V60.2106ZM89.537 56.1885V60.2106H97.4632V56.1885C97.4632 53.9707 95.6853 52.1663 93.5001 52.1663C91.3149 52.1663 89.537 53.9707 89.537 56.1885Z" fill="white"/>
<g id="Group">
<path id="Shape_2" d="M93.5002 20.4707L94.8982 24.9116H99.4231L95.7626 27.6561L97.1607 32.097L93.5002 29.3507L89.8404 32.097L91.2387 27.6561L87.577 24.9116H92.1019L93.5002 20.4707Z" fill="#F8D12E"/>
<path id="Shape_3" d="M93.5002 93.5498L94.8982 97.992H99.4231L95.7626 100.736L97.1607 105.176L93.5002 102.432L89.8404 105.176L91.2387 100.736L87.577 97.992H92.1019L93.5002 93.5498Z" fill="#F8D12E"/>
<path id="Shape_4" d="M112.115 27.1147L113.513 31.5556H118.039L114.377 34.3012L115.776 38.741L112.115 35.9954L108.454 38.741L109.853 34.3012L106.192 31.5556H110.718L112.115 27.1147Z" fill="#F8D12E"/>
<path id="Shape_5" d="M127.166 74.9248L128.563 79.3672H133.088L129.427 82.1115L130.826 86.5511L127.166 83.8078L123.504 86.5511L124.903 82.1115L121.242 79.3672H125.767L127.166 74.9248Z" fill="#F8D12E"/>
<path id="Shape_6" d="M130.731 57.0103L132.129 61.4508H136.654L132.993 64.195L134.391 68.6366L130.731 65.8933L127.07 68.6366L128.47 64.195L124.808 61.4508H129.332L130.731 57.0103Z" fill="#F8D12E"/>
<path id="Shape_7" d="M56.2701 57.0103L57.6677 61.4508H62.1923L58.5313 64.195L59.9305 68.6366L56.2701 65.8933L52.6088 68.6366L54.0073 64.195L50.3462 61.4508H54.8716L56.2701 57.0103Z" fill="#F8D12E"/>
<path id="Shape_8" d="M59.3525 74.9248L60.7501 79.3672H65.2747L61.6146 82.1115L63.0119 86.5511L59.3525 83.8078L55.6914 86.5511L57.0897 82.1115L53.4286 79.3672H57.9542L59.3525 74.9248Z" fill="#F8D12E"/>
<path id="Shape_9" d="M127.166 38.6221L128.563 43.0644H133.088L129.427 45.8088L130.826 50.2484L127.166 47.505L123.504 50.2484L124.903 45.8088L121.242 43.0644H125.767L127.166 38.6221Z" fill="#F8D12E"/>
<path id="Shape_10" d="M60.8937 38.6221L62.2912 43.0644H66.8159L63.1558 45.8088L64.5531 50.2484L60.8937 47.505L57.2326 50.2484L58.6309 45.8088L54.9698 43.0644H59.4954L60.8937 38.6221Z" fill="#F8D12E"/>
<path id="Shape_11" d="M115.5 90.2285L116.898 94.6687H121.423L117.761 97.4146L119.16 101.855L115.5 99.1107L111.839 101.855L113.238 97.4146L109.577 94.6687H114.102L115.5 90.2285Z" fill="#F8D12E"/>
<path id="Shape_12" d="M74.8848 27.1147L76.2821 31.5556H80.8077L77.1466 34.3012L78.5459 38.741L74.8848 35.9954L71.2244 38.741L72.6227 34.3012L68.9616 31.5556H73.4863L74.8848 27.1147Z" fill="#F8D12E"/>
<path id="Shape_13" d="M71.4996 90.2285L72.8978 94.671H77.4231L73.7623 97.4143L75.1604 101.855L71.4996 99.1123L67.8396 101.855L69.2377 97.4143L65.5769 94.671H70.1013L71.4996 90.2285Z" fill="#F8D12E"/>
</g>
</g>
<path id="GDPR" fill-rule="evenodd" clip-rule="evenodd" d="M59.9359 141.647C59.9359 146.707 63.8855 149.882 68.7373 149.882C71.8092 149.882 74.1741 148.665 75.9295 146.779V140.549H68.079V143.962H71.8092V145.299C71.1509 145.824 70.005 146.254 68.7373 146.254C66.0798 146.254 64.2025 144.249 64.2025 141.647C64.2025 139.045 66.0798 137.04 68.7373 137.04C70.2732 137.04 71.5166 137.875 72.1749 138.926L75.6857 137.112C74.491 135.13 72.2968 133.412 68.7373 133.412C63.8855 133.412 59.9359 136.586 59.9359 141.647ZM78.3919 149.596V133.675H85.2184C90.3383 133.675 94.0197 136.682 94.0197 141.624C94.0197 146.565 90.3383 149.596 85.2428 149.596H78.3919ZM82.5853 146.015H85.2184C88.0709 146.015 89.7288 143.986 89.7288 141.623C89.7288 139.164 88.2172 137.255 85.2428 137.255H82.5853V146.015ZM96.1165 149.596V133.675H104.26C107.917 133.675 109.916 136.086 109.916 138.974C109.916 141.838 107.917 144.202 104.26 144.202H100.31V149.596H96.1165ZM105.649 138.949C105.649 137.851 104.82 137.135 103.699 137.135H100.31V140.716H103.699C104.82 140.716 105.649 140.024 105.649 138.949ZM120.863 149.596L118.132 144.202H115.987V149.596H111.793V133.675H119.936C123.544 133.675 125.592 136.014 125.592 138.974C125.592 141.743 123.861 143.223 122.35 143.748L125.666 149.596H120.863ZM121.326 138.925C121.326 137.827 120.399 137.135 119.302 137.135H115.987V140.716H119.302C120.399 140.716 121.326 140.024 121.326 138.925Z" fill="#5A6872"/>
<path id="Compliant" d="M78.3661 173.833C77.9701 173.989 77.4541 174.067 76.8181 174.067C76.2061 174.067 75.7081 173.917 75.3241 173.617C74.9401 173.317 74.7481 172.813 74.7481 172.105C74.7481 171.073 74.6101 170.269 74.3341 169.693C74.0701 169.117 73.5661 168.829 72.8221 168.829H70.7341V173.941H67.9981V161.593H73.5241C74.7001 161.593 75.6841 161.833 76.4761 162.313C77.2801 162.793 77.6821 163.573 77.6821 164.653C77.6821 165.085 77.5861 165.511 77.3941 165.931C77.2021 166.351 76.9321 166.711 76.5841 167.011C76.2481 167.311 75.8761 167.497 75.4681 167.569V167.659C75.9961 167.827 76.4581 168.187 76.8541 168.739C77.2501 169.291 77.4481 170.029 77.4481 170.953C77.4481 172.273 77.7541 173.029 78.3661 173.221V173.833ZM73.4341 166.651C73.8301 166.651 74.1661 166.519 74.4421 166.255C74.7301 165.991 74.8741 165.673 74.8741 165.301V165.175C74.8741 164.779 74.7361 164.455 74.4601 164.203C74.1961 163.939 73.8541 163.807 73.4341 163.807H70.7341V166.651H73.4341ZM88.3929 170.503C88.3929 171.307 88.2009 171.985 87.8169 172.537C87.4329 173.077 86.9229 173.479 86.2869 173.743C85.6629 173.995 84.9789 174.121 84.2349 174.121H83.9469C83.0949 174.121 82.3269 173.941 81.6429 173.581C80.9589 173.221 80.4189 172.705 80.0229 172.033C79.6389 171.349 79.4469 170.539 79.4469 169.603V169.081C79.4469 168.157 79.6449 167.353 80.0409 166.669C80.4369 165.985 80.9709 165.463 81.6429 165.103C82.3269 164.743 83.0949 164.563 83.9469 164.563H84.2349C84.9789 164.563 85.6689 164.719 86.3049 165.031C86.9409 165.331 87.4509 165.775 87.8349 166.363C88.2189 166.939 88.4109 167.623 88.4109 168.415V169.783H82.1109V170.215C82.1109 170.815 82.2849 171.319 82.6329 171.727C82.9929 172.123 83.4789 172.321 84.0909 172.321C84.6429 172.321 85.0749 172.171 85.3869 171.871C85.7109 171.559 85.8729 171.103 85.8729 170.503H88.3929ZM83.9649 166.363C83.4369 166.363 83.0049 166.549 82.6689 166.921C82.3449 167.293 82.1589 167.767 82.1109 168.343H85.7469C85.7469 167.731 85.6029 167.251 85.3149 166.903C85.0389 166.543 84.5889 166.363 83.9649 166.363ZM96.0066 167.731C96.0066 167.323 95.8746 166.993 95.6106 166.741C95.3586 166.489 94.9446 166.363 94.3686 166.363C94.0326 166.363 93.7446 166.423 93.5046 166.543C93.2646 166.651 93.0786 166.789 92.9466 166.957C92.8266 167.125 92.7666 167.281 92.7666 167.425V167.569H90.2286C90.2046 167.425 90.1926 167.317 90.1926 167.245C90.1926 166.729 90.3606 166.267 90.6966 165.859C91.0446 165.451 91.5246 165.133 92.1366 164.905C92.7486 164.677 93.4506 164.563 94.2426 164.563H94.6206C95.9166 164.563 96.9006 164.821 97.5726 165.337C98.2446 165.841 98.5806 166.537 98.5806 167.425V171.673C98.5806 171.889 98.6286 172.051 98.7246 172.159C98.8326 172.267 98.9586 172.321 99.1026 172.321C99.2226 172.321 99.3546 172.297 99.4986 172.249C99.6426 172.201 99.7566 172.159 99.8406 172.123V173.743C99.3966 173.995 98.8686 174.121 98.2566 174.121C97.5966 174.121 97.0926 173.989 96.7446 173.725C96.3966 173.449 96.1926 173.065 96.1326 172.573C95.2926 173.605 94.2606 174.121 93.0366 174.121C92.1246 174.121 91.3746 173.935 90.7866 173.563C90.1986 173.191 89.9046 172.483 89.9046 171.439C89.9046 170.587 90.1446 169.939 90.6246 169.495C91.1166 169.039 91.7946 168.733 92.6586 168.577C93.5226 168.421 94.6386 168.343 96.0066 168.343V167.731ZM96.0066 169.819C94.8666 169.819 94.0146 169.933 93.4506 170.161C92.8986 170.377 92.6226 170.737 92.6226 171.241C92.6226 171.637 92.7306 171.919 92.9466 172.087C93.1746 172.243 93.5166 172.321 93.9726 172.321C94.2846 172.321 94.5966 172.237 94.9086 172.069C95.2206 171.901 95.4786 171.661 95.6826 171.349C95.8986 171.037 96.0066 170.689 96.0066 170.305V169.819ZM107.124 172.789C106.452 173.677 105.588 174.121 104.532 174.121C103.812 174.121 103.164 173.947 102.588 173.599C102.012 173.251 101.556 172.723 101.22 172.015C100.884 171.307 100.716 170.431 100.716 169.387V169.189C100.716 168.193 100.872 167.347 101.184 166.651C101.496 165.955 101.916 165.433 102.444 165.085C102.984 164.737 103.59 164.563 104.262 164.563C104.838 164.563 105.342 164.683 105.774 164.923C106.218 165.163 106.572 165.457 106.836 165.805V160.981H109.464V173.941H107.394L107.124 172.789ZM103.38 170.143C103.38 170.839 103.542 171.379 103.866 171.763C104.19 172.135 104.604 172.321 105.108 172.321C105.612 172.321 106.026 172.135 106.35 171.763C106.674 171.379 106.836 170.839 106.836 170.143V168.649C106.836 167.941 106.674 167.401 106.35 167.029C106.026 166.657 105.612 166.471 105.108 166.471C104.604 166.471 104.19 166.657 103.866 167.029C103.542 167.401 103.38 167.941 103.38 168.649V170.143ZM116.911 173.437C116.467 174.637 115.921 175.579 115.273 176.263C114.625 176.959 113.845 177.307 112.933 177.307C112.297 177.307 111.781 177.217 111.385 177.037V175.183C111.529 175.243 111.715 175.297 111.943 175.345C112.171 175.405 112.387 175.435 112.591 175.435C113.359 175.435 113.905 174.877 114.229 173.761L110.755 164.743H113.545L115.579 170.521H115.687L117.595 164.743H120.187L116.911 173.437Z" fill="#5A6872"/>
</g>
<defs>
<filter id="filter0_d" x="13.5769" y="0" width="159.846" height="204.235" filterUnits="userSpaceOnUse" color-interpolation-filters="sRGB">
<feFlood flood-opacity="0" result="BackgroundImageFix"/>
<feColorMatrix in="SourceAlpha" type="matrix" values="0 0 0 0 0 0 0 0 0 0 0 0 0 0 0 0 0 0 127 0"/>
<feOffset dy="4"/>
<feGaussianBlur stdDeviation="4"/>
<feColorMatrix type="matrix" values="0 0 0 0 0 0 0 0 0 0 0 0 0 0 0 0 0 0 0.1 0"/>
<feBlend mode="normal" in2="BackgroundImageFix" result="effect1_dropShadow"/>
<feBlend mode="normal" in="SourceGraphic" in2="effect1_dropShadow" result="shape"/>
</filter>
</defs>
</svg>
