<svg width="48" height="48" viewBox="0 0 48 48" fill="none" xmlns="http://www.w3.org/2000/svg">
<path d="M23.997 0.499512C10.746 0.499512 0 11.2875 0 24.5955C0 35.2395 6.876 44.2695 16.416 47.4585C17.616 47.6805 18.054 46.9365 18.054 46.2975C18.054 44.1864 16.0177 42.7593 13.9546 42.3113C11.3757 41.7514 10.3511 39.9477 10.0444 39.2488C9.96347 39.0643 9.9004 38.8736 9.82183 38.6881C9.47514 37.8694 9.08867 37.2422 8.72357 36.7678C7.92039 35.7242 5.76137 34.1624 7.06847 34.0021C7.5401 33.9442 7.67705 33.9754 8.13706 34.0944C9.74041 34.5093 10.7152 35.8415 11.012 36.3037C11.0796 36.4089 11.141 36.5201 11.2066 36.6265C13.0596 39.6331 15.8386 39.2735 17.4324 38.7273C17.8533 38.583 18.1535 38.0338 18.2677 37.6037C18.556 36.5175 17.8323 35.0117 16.7427 34.7367C12.4516 33.654 8.688 30.9004 8.688 23.3355C8.688 22.1364 8.88242 21.037 9.23946 20.0359C10.0047 17.8901 10.6966 16.4789 10.6756 14.2009C10.6593 12.4311 12.4631 10.2916 14.1277 10.8927C14.3688 10.9798 14.6267 11.0826 14.9017 11.2039C16.9671 12.1145 19.2426 12.5412 21.4863 12.2943C22.3199 12.2026 23.1622 12.1552 24.003 12.1515C24.8417 12.1565 25.6835 12.2041 26.5174 12.296C28.7623 12.5432 31.0397 12.1161 33.1062 11.205C33.3769 11.0857 33.631 10.9842 33.8688 10.8981C35.5353 10.2945 37.3431 12.4371 37.327 14.2094C37.3064 16.4863 38.0008 17.8904 38.7631 20.0359C39.1191 21.0378 39.312 22.1382 39.312 23.3385C39.312 29.7996 36.5779 32.7428 33.1082 34.1342C31.3777 34.8281 29.985 37.8241 29.985 39.6885C29.985 42.9105 29.955 45.5085 29.955 46.2975C29.955 46.9425 30.387 47.6925 31.605 47.4555C41.13 44.2635 48 35.2365 48 24.5955C48 11.2875 37.254 0.499512 23.997 0.499512Z" fill="black"/>
</svg>
