<svg width="48" height="48" viewBox="0 0 48 48" fill="none" xmlns="http://www.w3.org/2000/svg">
<g clip-path="url(#clip0)">
<path d="M10.6378 29.0068L8.967 35.2441L2.86022 35.3733C1.03519 31.9883 0 28.1154 0 23.9998C0 20.02 0.967875 16.267 2.6835 12.9624H2.68481L8.12156 13.9592L10.5032 19.3633C10.0047 20.8165 9.73303 22.3765 9.73303 23.9998C9.73322 25.7615 10.0523 27.4495 10.6378 29.0068Z" fill="#FBBB00"/>
<path d="M47.5807 19.5164C47.8563 20.9682 48 22.4675 48 23.9999C48 25.7181 47.8194 27.3942 47.4752 29.0109C46.3069 34.5124 43.2541 39.3164 39.0252 42.7159L39.0238 42.7146L32.176 42.3652L31.2068 36.315C34.0129 34.6694 36.2059 32.0939 37.3611 29.0109H24.5276V19.5164H37.5483H47.5807Z" fill="#518EF8"/>
<path d="M39.0239 42.715L39.0252 42.7163C34.9123 46.0222 29.6876 48.0002 24.0001 48.0002C14.8604 48.0002 6.91401 42.8917 2.86035 35.3739L10.6379 29.0073C12.6647 34.4165 17.8828 38.2671 24.0001 38.2671C26.6295 38.2671 29.0929 37.5563 31.2067 36.3154L39.0239 42.715Z" fill="#28B446"/>
<path d="M39.319 5.52525L31.5441 11.8905C29.3564 10.5231 26.7704 9.73312 23.9999 9.73312C17.7441 9.73312 12.4284 13.7603 10.5032 19.3635L2.68472 12.9626H2.68341C6.67772 5.26153 14.7243 0 23.9999 0C29.8232 0 35.1625 2.07431 39.319 5.52525Z" fill="#F14336"/>
</g>
<defs>
<clipPath id="clip0">
<rect width="48" height="48" fill="white"/>
</clipPath>
</defs>
</svg>
