<svg width="50" height="48" viewBox="0 0 50 48" fill="none" xmlns="http://www.w3.org/2000/svg">
<g clip-path="url(#clip0)">
<path d="M37.6674 23.3392L19.6904 11.3392C19.4395 11.1728 19.1159 11.1544 18.8479 11.2928C18.5807 11.4312 18.4132 11.7032 18.4132 12V36C18.4132 36.2968 18.5807 36.5688 18.8487 36.7072C18.968 36.7696 19.0996 36.8 19.2303 36.8C19.3913 36.8 19.5523 36.7528 19.6904 36.6608L37.6674 24.6608C37.8905 24.512 38.0245 24.2648 38.0245 24C38.0245 23.7352 37.8905 23.488 37.6674 23.3392ZM20.0475 34.4856V13.5144L35.757 24L20.0475 34.4856Z" fill="white"/>
<path d="M24.9503 0C11.4332 0 0.436157 10.7664 0.436157 24C0.436157 37.2336 11.4332 48 24.9503 48C38.4674 48 49.4644 37.2336 49.4644 24C49.4644 10.7664 38.4674 0 24.9503 0ZM24.9503 46.4C12.3345 46.4 2.07043 36.3512 2.07043 24C2.07043 11.6488 12.3345 1.6 24.9503 1.6C37.5661 1.6 47.8302 11.6488 47.8302 24C47.8302 36.3512 37.5661 46.4 24.9503 46.4Z" fill="white"/>
</g>
<defs>
<clipPath id="clip0">
<rect width="49.0283" height="48" fill="white" transform="translate(0.436157)"/>
</clipPath>
</defs>
</svg>
